<?xml version="1.0" encoding="UTF-8" standalone="no"?>
<svg
   version="1.1"
   width="612pt"
   height="792pt"
   id="svg38"
   viewBox="0 0 612 792"
   sodipodi:docname="rklogo.cdr"
   xmlns:inkscape="http://www.inkscape.org/namespaces/inkscape"
   xmlns:sodipodi="http://sodipodi.sourceforge.net/DTD/sodipodi-0.dtd"
   xmlns="http://www.w3.org/2000/svg"
   xmlns:svg="http://www.w3.org/2000/svg">
  <defs
     id="defs42" />
  <sodipodi:namedview
     id="namedview40"
     pagecolor="#ffffff"
     bordercolor="#000000"
     borderopacity="0.25"
     inkscape:showpageshadow="2"
     inkscape:pageopacity="0.0"
     inkscape:pagecheckerboard="0"
     inkscape:deskcolor="#d1d1d1"
     inkscape:document-units="pt" />
  <g
     id="Layer1000">
    <path
       d="m 91.8828,386.7114 h 6.3159 v -8.1998 h -6.3159 z m 9.8899,-17.0065 c 2.5009,0 4.4837,0.759 5.9515,2.2871 1.4678,1.5194 2.1967,3.584 2.1967,6.1954 v 6.5296 c 0,1.7117 -0.495,3.0375 -1.4979,3.9787 -1.0015,0.9513 -2.541,1.5696 -4.6258,1.8423 2.2368,0.4763 3.8165,1.1851 4.7377,2.1263 0.9211,0.9412 1.386,2.277 1.386,4.0188 v 6.3059 h 12.319 v 8.8684 h -18.9492 c -1.5467,0 -2.706,-0.3114 -3.4621,-0.9312 -0.7604,-0.6241 -1.1435,-1.5696 -1.1435,-2.8351 V 394.607 h -6.8023 v 17.2504 H 76.5765 v -8.8684 h 3.4005 v -24.4774 h -3.4005 v -8.8067 z"
       style="fill:#007d9a;fill-rule:evenodd"
       id="path2" />
    <path
       d="m 530.8422,369.7059 v 8.8067 h -380.503 l -5.6984,9.1108 h 8.0162 v 15.3668 h 3.4023 v 8.8678 h -15.489 v -16.3991 h -6.5589 v 16.3991 h -15.3057 v -8.8678 h 3.3399 v -24.4776 h -3.3399 v -8.8067 h 15.3057 v 17.3715 l 8.6858,-17.3715 z"
       style="fill:#007d9a;fill-rule:evenodd"
       id="path4" />
    <g
       id="Layer1001">
      <path
         d="m 176.7788,389.685 v 6.1139 h 4.1301 v -6.1139 z m 6.5263,-5.8718 c 1.7,0 3.0229,0.5196 3.9611,1.5525 0.9446,1.0328 1.4163,2.4907 1.4163,4.3597 v 5.3446 c 0,1.734 -0.4856,3.1175 -1.4503,4.1365 -0.9723,1.019 -2.2814,1.5322 -3.9271,1.5322 h -6.5263 v 5.2639 h 2.3885 v 5.9109 h -12.5922 v -5.9109 h 2.2675 V 389.685 h -2.2675 v -5.8718 z"
         style="fill:#007d9a;fill-rule:evenodd"
         id="path6" />
      <path
         d="m 190.5805,411.9135 v -5.9109 h 2.2675 V 389.685 h -2.2675 v -5.8718 h 10.244 v 10.9327 h 4.0091 v -10.9327 h 10.2025 v 5.8718 h -2.2259 v 16.3176 h 2.2259 v 5.9109 H 204.8336 V 400.658 h -4.0091 v 11.2555 z"
         style="fill:#007d9a;fill-rule:evenodd"
         id="path8" />
      <path
         d="m 227.3824,399.9291 h 3.685 l -1.8223,-11.3375 z m -10.7699,11.9844 v -5.9109 h 2.1388 l 4.2513,-22.1894 h 12.7537 l 4.2121,22.1894 h 1.9901 v 5.9109 h -9.495 l -0.9105,-6.8428 h -4.7381 l -0.85,6.8428 z"
         style="fill:#007d9a;fill-rule:evenodd"
         id="path10" />
      <path
         d="m 253.8306,395.1507 h 4.2109 v -5.4657 h -4.2109 z m 6.5932,-11.3375 c 1.6672,0 2.9901,0.507 3.9674,1.526 0.9787,1.0114 1.4655,2.3886 1.4655,4.1302 v 4.3521 c 0,1.14 -0.3317,2.0241 -0.9988,2.6521 -0.6684,0.6344 -1.6937,1.0455 -3.0847,1.2284 1.4919,0.3165 2.5449,0.7894 3.1591,1.4175 0.6129,0.6267 0.9244,1.5171 0.9244,2.6786 v 4.2045 h 2.2258 v 5.9109 h -6.6461 c -1.0328,0 -1.8021,-0.2093 -2.3078,-0.6205 -0.507,-0.4187 -0.763,-1.0467 -0.763,-1.8904 v -8.988 h -4.535 v 11.4989 h -10.2037 v -5.9109 h 2.2675 V 389.685 h -2.2675 v -5.8718 z"
         style="fill:#007d9a;fill-rule:evenodd"
         id="path12" />
      <path
         d="m 278.9029,411.9135 h -9.4344 v -5.9109 h 2.2675 V 389.685 h -2.2675 v -5.8718 h 9.4344 l 7.2136,12.2619 6.8429,-12.2619 h 9.3461 v 5.8718 h -2.2675 v 16.3176 h 2.2675 v 5.9109 h -9.8783 v -14.9884 l -6.6814,11.7082 -6.8429,-11.7082 z"
         style="fill:#007d9a;fill-rule:evenodd"
         id="path14" />
      <path
         d="m 314.6191,399.9291 h 3.685 l -1.8223,-11.3375 z m -10.77,11.9844 v -5.9109 h 2.1389 l 4.2512,-22.1894 h 12.7537 l 4.2122,22.1894 h 1.99 v 5.9109 h -9.495 l -0.9105,-6.8428 h -4.738 l -0.85,6.8428 z"
         style="fill:#007d9a;fill-rule:evenodd"
         id="path16" />
      <path
         d="m 336.5802,411.9135 c -1.6609,0 -2.9825,-0.5133 -3.9612,-1.5323 -0.9786,-1.0189 -1.4717,-2.4024 -1.4717,-4.1427 v -16.7691 c 0,-1.7152 0.4931,-3.0847 1.4781,-4.1176 0.9925,-1.0253 2.3078,-1.5386 3.9548,-1.5386 h 13.5571 v 9.2327 h -6.8832 v -3.3609 h -4.1302 v 16.3176 h 4.1302 v -4.7783 h 6.8832 v 10.6892 z"
         style="fill:#007d9a;fill-rule:evenodd"
         id="path18" />
      <path
         d="m 352.319,411.9135 v -5.9109 h 2.2675 V 389.685 h -2.2675 v -5.8718 h 21.1363 v 8.9893 h -6.5187 v -3.1175 h -4.4946 v 5.2639 h 5.9928 v 5.1416 h -5.9928 v 5.9121 h 4.4946 v -3.7253 h 6.9236 v 9.6362 z"
         style="fill:#007d9a;fill-rule:evenodd"
         id="path20" />
      <path
         d="m 398.114,406.2385 c 0,1.7277 -0.4918,3.1036 -1.4705,4.1301 -0.9849,1.0316 -2.3015,1.5449 -3.9548,1.5449 h -9.1507 c -1.6533,0 -2.9624,-0.5057 -3.9271,-1.5247 -0.9724,-1.0127 -1.4579,-2.3961 -1.4579,-4.1503 V 389.685 h -2.2675 v -5.8718 h 10.2441 v 22.1894 h 4.0091 v -22.1894 h 10.2024 v 5.8718 h -2.2271 z"
         style="fill:#007d9a;fill-rule:evenodd"
         id="path22" />
      <path
         d="m 420.7915,406.0026 v 5.9109 h -12.3489 v -5.9109 h 2.1868 V 389.685 h -2.6724 v 4.6561 h -5.7494 v -10.5279 h 24.8201 v 10.5279 h -5.7507 v -4.6561 h -2.6723 v 16.3176 z"
         style="fill:#007d9a;fill-rule:evenodd"
         id="path24" />
      <path
         d="m 441.4511,383.8132 v 5.8718 h -2.2675 v 16.3176 h 2.2675 v 5.9109 h -12.4712 v -5.9109 h 2.2675 V 389.685 h -2.2675 v -5.8718 z"
         style="fill:#007d9a;fill-rule:evenodd"
         id="path26" />
      <path
         d="m 449.0304,411.9135 c -1.6609,0 -2.9825,-0.5133 -3.9611,-1.5323 -0.9787,-1.0189 -1.4718,-2.4024 -1.4718,-4.1427 v -16.7691 c 0,-1.7152 0.4931,-3.0847 1.4781,-4.1176 0.9925,-1.0253 2.3078,-1.5386 3.9548,-1.5386 h 13.5571 v 9.2327 h -6.8832 v -3.3609 h -4.1302 v 16.3176 h 4.1302 v -4.7783 h 6.8832 v 10.6892 z"
         style="fill:#007d9a;fill-rule:evenodd"
         id="path28" />
      <path
         d="m 475.2567,399.9291 h 3.685 l -1.8224,-11.3375 z m -10.77,11.9844 v -5.9109 h 2.1389 l 4.2512,-22.1894 h 12.7537 l 4.2121,22.1894 h 1.9901 v 5.9109 h -9.495 l -0.9105,-6.8428 h -4.738 l -0.85,6.8428 z"
         style="fill:#007d9a;fill-rule:evenodd"
         id="path30" />
      <path
         d="m 491.5011,411.9135 v -5.9109 h 2.2675 V 389.685 h -2.2675 v -5.8718 h 12.4309 v 5.8718 h -2.3079 v 16.3176 h 3.7657 v -5.0621 h 7.2881 v 10.973 z"
         style="fill:#007d9a;fill-rule:evenodd"
         id="path32" />
      <path
         d="m 520.1235,400.3339 c -1.6596,0 -2.9687,-0.507 -3.9334,-1.5259 -0.966,-1.019 -1.4516,-2.3949 -1.4516,-4.1428 v -5.1958 c 0,-1.7416 0.4856,-3.1188 1.4516,-4.1302 0.9647,-1.019 2.2738,-1.526 3.9334,-1.526 h 13.5242 v 8.3411 h -6.7217 v -2.4693 h -4.3723 v 5.1012 h 6.6461 c 1.647,0 2.956,0.5133 3.9284,1.5323 0.9647,1.0253 1.4502,2.4024 1.4502,4.1365 v 5.7835 c 0,1.7403 -0.4855,3.1238 -1.4502,4.1427 -0.9724,1.019 -2.2814,1.5323 -3.9284,1.5323 h -14.0565 v -8.7055 h 7.4104 v 2.7946 h 4.3723 v -5.6687 z"
         style="fill:#007d9a;fill-rule:evenodd"
         id="path34" />
    </g>
  </g>
</svg>
